<?xml version="1.0" standalone="no"?>
<!DOCTYPE svg PUBLIC "-//W3C//DTD SVG 20010904//EN"
 "http://www.w3.org/TR/2001/REC-SVG-20010904/DTD/svg10.dtd">
<svg version="1.0" xmlns="http://www.w3.org/2000/svg"
 width="401.000000pt" height="400.000000pt" viewBox="0 0 401.000000 400.000000"
 preserveAspectRatio="xMidYMid meet">

<g transform="translate(0.000000,400.000000) scale(0.100000,-0.100000)"
fill="#000000" stroke="none">
<path d="M10 3955 c0 -75 29 -327 55 -483 133 -782 497 -1529 1056 -2166 115
-130 384 -398 489 -486 36 -30 -7 16 -95 101 -699 681 -1162 1514 -1339 2411
-34 170 -65 406 -73 551 l-6 117 -44 0 -43 0 0 -45z"/>
<path d="M3867 3882 c-21 -387 -125 -850 -283 -1259 -223 -578 -551 -1091
-993 -1548 l-164 -170 189 190 c189 189 324 343 460 525 420 562 729 1250 863
1920 30 149 61 365 61 426 l0 34 -63 0 -64 0 -6 -118z"/>
<path d="M951 3431 c-10 -7 -12 -25 -6 -82 9 -88 32 -230 40 -237 12 -12 12 7
-1 78 -7 41 -16 110 -20 153 l-7 77 269 -2 269 -3 3 -52 c2 -29 8 -53 14 -53
16 0 4 110 -13 121 -18 11 -530 12 -548 0z"/>
<path d="M2514 3432 c-13 -8 -25 -122 -12 -122 4 0 8 18 8 39 0 76 -18 71 276
71 l264 0 0 -52 c0 -49 -7 -104 -25 -215 -5 -26 -4 -43 2 -43 10 0 28 106 39
227 5 52 3 77 -6 88 -11 13 -52 15 -274 15 -143 0 -266 -4 -272 -8z"/>
<path d="M1261 3175 c-1 -53 2 -85 9 -85 6 0 10 33 10 85 0 47 -4 85 -8 85 -5
0 -10 -38 -11 -85z"/>
<path d="M1340 3173 c0 -63 3 -84 11 -76 6 6 10 33 8 62 -2 28 -2 51 1 51 3 0
18 -23 34 -51 l29 -52 33 54 34 54 0 -62 c0 -35 4 -63 10 -63 6 0 10 35 10 85
0 50 -4 85 -10 85 -5 0 -10 -3 -10 -7 0 -5 -16 -32 -34 -62 l-34 -54 -33 61
c-19 34 -37 62 -41 62 -5 0 -8 -39 -8 -87z"/>
<path d="M1606 3232 c-36 -69 -64 -142 -55 -142 5 0 15 11 21 25 9 21 18 25
55 25 37 0 45 -4 55 -25 10 -22 35 -38 26 -17 -30 75 -73 162 -80 162 -4 0
-14 -13 -22 -28z m40 -37 c19 -46 19 -45 -21 -45 -19 0 -35 2 -35 5 0 8 33 75
37 75 2 0 11 -16 19 -35z"/>
<path d="M1740 3175 c0 -98 18 -116 22 -22 l3 62 28 -47 c15 -27 31 -48 35
-48 4 0 21 21 37 48 l30 47 6 -65 c3 -36 7 -62 8 -57 4 15 3 159 -2 163 -3 3
-22 -22 -42 -56 l-38 -62 -34 61 c-19 34 -38 61 -44 61 -5 0 -9 -38 -9 -85z"/>
<path d="M2040 3175 c0 -50 4 -85 10 -85 6 0 10 18 10 40 l0 40 50 0 50 0 0
-40 c0 -22 5 -40 10 -40 6 0 10 35 10 85 0 50 -4 85 -10 85 -5 0 -10 -16 -10
-35 l0 -35 -50 0 -50 0 0 35 c0 19 -4 35 -10 35 -6 0 -10 -35 -10 -85z"/>
<path d="M2249 3183 c-19 -42 -35 -80 -37 -85 -9 -21 16 -5 26 17 10 21 18 25
55 25 37 0 46 -4 55 -25 6 -14 16 -25 21 -25 6 0 -1 26 -15 57 -37 83 -54 113
-62 113 -5 0 -24 -35 -43 -77z m81 -25 c0 -5 -16 -8 -35 -8 -39 0 -42 7 -19
52 l17 32 18 -35 c10 -19 18 -37 19 -41z"/>
<path d="M2375 3250 c3 -5 17 -10 31 -10 23 0 24 -2 24 -75 0 -43 4 -75 10
-75 6 0 10 32 10 75 l0 75 30 0 c17 0 30 5 30 10 0 6 -30 10 -71 10 -44 0 -68
-4 -64 -10z"/>
<path d="M2541 3175 c-1 -52 2 -85 9 -85 6 0 10 34 10 85 0 47 -4 85 -9 85 -5
0 -9 -38 -10 -85z"/>
<path d="M2620 3174 c0 -54 4 -83 10 -79 6 3 10 17 10 31 0 21 4 24 38 24 64
0 93 49 52 90 -14 14 -33 20 -65 20 l-45 0 0 -86z m98 54 c30 -30 1 -68 -52
-68 -24 0 -26 4 -26 40 0 39 1 40 33 40 18 0 38 -5 45 -12z"/>
<path d="M970 3021 c0 -2 7 -9 16 -16 15 -11 14 -17 -10 -78 -30 -75 -32 -95
-12 -123 13 -17 29 -19 146 -22 l132 -4 -7 -26 c-9 -38 -20 -42 -108 -42 -71
0 -79 2 -84 20 -5 17 -14 20 -69 20 l-63 0 -10 -36 c-11 -41 -2 -67 29 -84 10
-6 88 -10 178 -10 149 0 161 1 193 23 39 26 70 83 76 142 4 32 1 44 -17 60
-19 17 -38 20 -143 22 -112 2 -122 4 -129 23 -4 11 -12 20 -18 20 -5 0 -10 5
-10 10 0 6 45 10 115 10 96 0 115 -3 115 -15 0 -12 14 -15 65 -15 61 0 66 2
75 26 13 34 13 47 -4 70 -13 18 -31 19 -235 24 -122 3 -221 3 -221 1z"/>
<path d="M1500 3020 c0 -2 12 -14 26 -25 l27 -21 -56 -160 c-30 -87 -58 -167
-62 -176 -6 -16 0 -18 62 -18 l68 0 20 58 20 57 142 5 c139 5 142 6 171 33 18
17 41 59 56 100 30 83 31 96 12 123 -13 18 -31 19 -250 24 -130 3 -236 3 -236
0z m356 -102 c-2 -7 -10 -30 -17 -50 l-12 -38 -93 0 -93 0 6 35 c4 26 2 36
-11 41 -41 16 -6 24 105 24 93 0 119 -3 115 -12z"/>
<path d="M2117 3019 c9 -9 7 -18 -8 -38 -10 -14 -39 -87 -64 -161 -45 -134
-45 -135 -27 -160 19 -25 21 -25 193 -28 188 -3 217 3 248 47 23 34 101 260
101 294 0 51 -24 57 -249 57 -153 0 -202 -3 -194 -11z m297 -87 c4 -7 -52
-176 -67 -199 -9 -14 -197 -19 -197 -6 0 5 12 44 26 87 l27 80 -22 14 c-11 8
-21 18 -21 23 0 11 247 12 254 1z"/>
<path d="M2610 3020 c0 -2 12 -14 26 -25 l27 -21 -61 -177 -62 -177 68 0 68 0
20 63 c19 60 21 62 56 65 35 3 37 1 73 -62 l37 -66 74 0 75 0 -15 28 c-8 15
-24 41 -35 57 -12 17 -21 33 -21 37 0 4 17 12 39 18 63 17 87 43 115 127 24
71 25 79 10 100 -8 13 -21 26 -28 29 -16 6 -466 10 -466 4z m360 -100 c0 -6
-7 -26 -15 -46 l-14 -35 -93 3 -93 3 3 26 c2 17 -3 29 -12 32 -9 4 -16 11 -16
17 0 6 44 10 120 10 76 0 120 -4 120 -10z"/>
<path d="M1234 2544 c-82 -40 -74 -166 12 -194 78 -26 154 23 154 99 0 43 -20
75 -60 96 -37 19 -67 19 -106 -1z m106 -44 c45 -45 11 -120 -53 -120 -42 0
-70 29 -70 70 0 63 78 95 123 50z"/>
<path d="M1410 2555 c0 -2 18 -34 39 -69 24 -38 41 -80 43 -103 2 -26 8 -39
21 -41 14 -3 17 4 17 37 0 30 11 58 41 107 22 36 38 69 35 71 -12 12 -38 -9
-64 -52 -15 -25 -29 -45 -32 -45 -3 0 -18 23 -33 50 -19 33 -35 50 -48 50 -10
0 -19 -2 -19 -5z"/>
<path d="M1640 2480 c0 -45 4 -89 10 -99 14 -27 64 -44 105 -37 52 10 65 37
65 134 0 74 -2 83 -17 80 -15 -3 -19 -16 -21 -78 -3 -83 -12 -100 -52 -100
-40 0 -49 17 -52 100 -2 62 -6 75 -20 78 -16 3 -18 -6 -18 -78z"/>
<path d="M1884 2547 c-3 -8 -3 -56 -2 -108 3 -79 6 -94 20 -97 15 -3 18 7 20
68 l3 71 58 -70 c32 -39 65 -71 73 -71 11 0 14 21 14 111 0 100 -2 110 -17
107 -14 -3 -19 -17 -23 -70 l-5 -67 -58 70 c-58 70 -73 80 -83 56z"/>
<path d="M2134 2547 c-3 -8 -3 -56 -2 -108 l3 -94 73 -3 c67 -3 72 -1 72 18 0
18 -6 20 -55 20 l-55 0 0 90 c0 74 -3 90 -15 90 -9 0 -18 -6 -21 -13z"/>
<path d="M2383 2548 c-20 -32 -90 -194 -86 -200 9 -16 30 -7 41 17 10 22 18
25 65 25 48 0 55 -3 65 -25 6 -14 19 -25 28 -25 21 0 15 23 -36 133 -38 84
-58 103 -77 75z m56 -120 c1 -5 -15 -8 -34 -8 -40 0 -41 3 -19 56 l17 39 18
-40 c9 -22 18 -43 18 -47z"/>
<path d="M2550 2451 c0 -104 1 -111 20 -111 16 0 20 7 20 35 0 30 3 35 24 35
17 0 34 -12 52 -35 26 -34 54 -46 54 -23 0 6 -8 20 -17 30 -14 16 -15 22 -5
36 24 34 32 62 23 85 -14 37 -35 47 -105 54 l-66 6 0 -112z m130 49 c18 -34
-4 -60 -50 -60 -40 0 -40 0 -40 40 0 40 0 40 40 40 29 0 42 -5 50 -20z"/>
<path d="M2777 2553 c-4 -3 -7 -50 -7 -104 0 -95 7 -116 33 -106 17 6 11 217
-7 217 -7 0 -16 -3 -19 -7z"/>
<path d="M1497 2248 c73 -63 198 -154 275 -200 l69 -41 -31 -18 c-68 -42 -181
-94 -290 -135 l-115 -43 50 -1 c111 0 324 42 480 96 l73 25 89 -30 c48 -17
126 -39 172 -50 85 -20 310 -46 333 -39 7 3 -32 19 -87 37 -232 76 -389 171
-548 333 -119 119 -155 138 -61 32 69 -79 161 -158 258 -221 70 -46 233 -127
280 -139 32 -8 35 -26 4 -20 -13 3 -63 13 -113 21 -49 9 -139 33 -200 52 -60
20 -119 35 -130 35 -11 0 -62 -14 -114 -31 -113 -38 -332 -84 -344 -72 -4 4
12 13 35 20 38 11 301 142 295 146 -1 2 -44 28 -95 60 -97 59 -198 133 -265
192 -20 18 -44 33 -53 33 -9 0 5 -18 33 -42z"/>
<path d="M2140 2283 c0 -5 -25 -36 -56 -70 l-55 -62 82 -61 c62 -46 87 -59
103 -54 62 19 363 243 338 252 -6 2 -41 -22 -78 -54 -65 -55 -254 -184 -269
-184 -4 0 -39 23 -77 51 l-69 51 23 29 c13 15 38 46 56 68 25 30 29 41 18 41
-9 0 -16 -3 -16 -7z"/>
<path d="M1700 745 c13 -14 26 -25 28 -25 3 0 -5 11 -18 25 -13 14 -26 25 -28
25 -3 0 5 -11 18 -25z"/>
</g>
</svg>
